<?xml version="1.0" encoding="UTF-8" standalone="no"?>
<svg width="512" height="512" version="1.1" viewBox="0 0 256 256" xmlns="http://www.w3.org/2000/svg" xmlns:svg="http://www.w3.org/2000/svg">
  <defs>
    <linearGradient id="Gradient" spreadMethod="pad" x1="0" y1="0" x2="0" y2="256" gradientUnits="userSpaceOnUse">
      <stop offset="0" style="stop-color:#1C71D8;stop-opacity:1"/>
      <stop offset="1" style="stop-color:#241F31;stop-opacity:1"/>
    </linearGradient>
  </defs>
  <rect width="256" height="256" ry="0" x="0" y="0"
        style="fill:url(#Gradient);fill-opacity:1;fill-rule:nonzero;stroke:none" />
  <path d="M 176,96 H 80 a 10.666667,10.666667 0 0 0 -10.666667,10.66667 v 42.66666 A 10.666667,10.666667 0 0 0 80,160 h 96 a 10.666667,10.666667 0 0 0 10.66667,-10.66667 V 106.66667 A 10.666667,10.666667 0 0 0 176,96 m -53.33333,37.33333 h -16 v 16 H 96 v -16 H 80 v -10.66666 h 16 v -16 h 10.66667 v 16 h 16 m 24,21.33333 a 7.9999999,7.9999999 0 0 1 -8,-8 7.9999999,7.9999999 0 0 1 8,-8 7.9999999,7.9999999 0 0 1 8,8 7.9999999,7.9999999 0 0 1 -8,8 M 168,128 a 7.9999999,7.9999999 0 0 1 -8,-8 7.9999999,7.9999999 0 0 1 8,-8 7.9999999,7.9999999 0 0 1 8,8 7.9999999,7.9999999 0 0 1 -8,8 z"
        style="fill:#ffffff;fill-opacity:1;stroke:none;stroke-width:5.333;stroke-dasharray:none;image-rendering:auto" />
</svg>
